<?xml version="1.0" encoding="utf-8"?>
<!-- Generator: Adobe Illustrator 24.3.0, SVG Export Plug-In . SVG Version: 6.00 Build 0)  -->
<svg version="1.1" id="Ebene_1" xmlns="http://www.w3.org/2000/svg" xmlns:xlink="http://www.w3.org/1999/xlink" x="0px" y="0px"
	 viewBox="0 0 283.46 42.52" style="enable-background:new 0 0 283.46 42.52;" xml:space="preserve">
<style type="text/css">
	.st0{fill:#009EE0;}
</style>
<path d="M270.57,25.19h-1.15l-1.81,3.75l-1.77-3.75h-1.22l2.42,4.88v2.2h1.12v-2.22L270.57,25.19z M262.45,32.27h1.09v-7.08h-1.12
	v5.19l-3.68-5.19h-1.12v7.08h1.12v-5.2L262.45,32.27z M251.88,30l1.31-3.4l1.3,3.4H251.88z M255.36,32.27h1.19l-2.79-7.08h-1.11
	l-2.8,7.08h1.16l0.51-1.34h3.33L255.36,32.27z M246.91,26.24c1.19,0,1.6,0.53,1.61,1.24c0,0.85-0.65,1.42-1.61,1.42h-0.56v-2.67
	H246.91z M246.92,29.94c1.43,0,2.75-0.87,2.75-2.46c0-1.53-1.08-2.29-2.69-2.29h-1.75v7.08h1.12v-2.33H246.92z M240.13,30.99h0.18
	l2.27-3.72v5h1.12v-7.08h-1.12l-2.34,3.9l-2.45-3.9h-1.13v7.08h1.12v-5.02L240.13,30.99z M231.48,25.99c1.53,0,2.73,1.26,2.73,2.73
	c0,1.5-1.21,2.75-2.73,2.75c-1.54,0-2.74-1.26-2.74-2.75C228.74,27.25,229.95,25.99,231.48,25.99 M231.48,24.97
	c-2.17,0-3.87,1.68-3.87,3.76c0,2.09,1.7,3.78,3.87,3.78c2.16,0,3.86-1.69,3.86-3.78C235.34,26.65,233.65,24.97,231.48,24.97
	 M226.62,25.33c-0.49-0.24-1.03-0.36-1.61-0.36c-2.19,0-3.87,1.68-3.87,3.76c0,2.09,1.68,3.78,3.87,3.78c0.58,0,1.13-0.12,1.61-0.36
	v-1.11c-0.46,0.28-0.99,0.45-1.56,0.45c-1.56,0-2.8-1.28-2.8-2.76c0-1.44,1.23-2.72,2.8-2.72c0.57,0,1.1,0.15,1.56,0.45V25.33z"/>
<path d="M282.37,21.72h1.09v-7.08h-1.12v5.19l-3.68-5.19h-1.12v7.08h1.12v-5.2L282.37,21.72z M272.37,15.44
	c1.53,0,2.73,1.26,2.73,2.73c0,1.5-1.21,2.75-2.73,2.75c-1.54,0-2.74-1.26-2.74-2.75C269.63,16.7,270.84,15.44,272.37,15.44
	 M272.37,14.42c-2.17,0-3.87,1.68-3.87,3.76c0,2.09,1.7,3.78,3.87,3.78c2.16,0,3.86-1.69,3.86-3.78
	C276.24,16.1,274.54,14.42,272.37,14.42 M266.08,21.72h1.12v-7.08h-1.12V21.72z M264.22,14.72c-0.38-0.13-0.91-0.22-1.35-0.22
	c-1.61,0-2.3,0.86-2.3,1.76c0,0.79,0.42,1.36,1.67,2.16c0.97,0.61,1.37,1,1.37,1.46c0,0.49-0.41,0.99-1.27,0.99
	c-0.65,0-1.33-0.18-1.74-0.39l-0.02,1.04c0.36,0.17,1.17,0.3,1.68,0.3c1.45,0,2.48-0.79,2.48-1.99c0-0.86-0.62-1.48-1.76-2.21
	c-0.94-0.6-1.3-0.96-1.3-1.39c0-0.4,0.31-0.79,1.19-0.79c0.46,0,0.97,0.12,1.32,0.29L264.22,14.72z M258.05,21.72h1.12v-7.08h-1.12
	V21.72z M256.97,14.64h-1.16l-2.12,5.67l-2.11-5.67h-1.2l2.68,7.08h1.21L256.97,14.64z M245.97,15.44c1.53,0,2.73,1.26,2.73,2.73
	c0,1.5-1.21,2.75-2.73,2.75c-1.54,0-2.74-1.26-2.74-2.75C243.23,16.7,244.43,15.44,245.97,15.44 M245.97,14.42
	c-2.17,0-3.87,1.68-3.87,3.76c0,2.09,1.7,3.78,3.87,3.78c2.16,0,3.86-1.69,3.86-3.78C249.83,16.1,248.13,14.42,245.97,14.42
	 M238.52,15.69c1.13,0,1.58,0.52,1.58,1.16c0,0.78-0.65,1.32-1.58,1.32h-0.61v-2.48H238.52z M240.07,21.72h1.38l-2.2-2.67
	c1.12-0.27,1.99-1.03,1.99-2.21c0-1.43-1.12-2.2-2.81-2.2h-1.63v7.08h1.12v-2.55h0.01L240.07,21.72z M235.51,18.21V17.8h-2.95
	l-0.44,1l2.23-0.01c-0.17,1.19-1.18,2.14-2.43,2.14c-1.54,0-2.74-1.26-2.74-2.76c0-1.46,1.21-2.72,2.74-2.72
	c0.72,0,1.37,0.26,1.91,0.76l0.77-0.76c-0.66-0.63-1.63-1.02-2.68-1.02c-2.17,0-3.87,1.68-3.87,3.76c0,2.09,1.7,3.78,3.87,3.78
	C233.93,21.95,235.51,20.26,235.51,18.21 M222.94,19.46l1.31-3.4l1.3,3.4H222.94z M226.42,21.72h1.19l-2.79-7.08h-1.11l-2.8,7.08
	h1.16l0.51-1.34h3.33L226.42,21.72z"/>
<path d="M233.05,11.17h3.77V10.2h-2.65V7.96h2.35V7h-2.35V5.06h2.57V4.09h-3.69V11.17z M226.2,11.17h1.12V7.9h3.08v3.27h1.12V4.09
	h-1.12V6.9h-3.08V4.09h-1.12V11.17z M222.46,11.17h1.12V5.09h1.48v-1h-4.09v1h1.49V11.17z"/>
<path class="st0" d="M39.7,16.2c0.09,0.69,0.11,1.26,0.11,1.97c0,9.4-7.57,16.91-16.97,16.91c-5.67,0-10.69-2.73-13.78-6.99h3.4
	c2.62,2.72,6.3,4.42,10.37,4.42c7.95,0,14.39-6.44,14.39-14.39l0-0.35L39.7,16.2z"/>
<path class="st0" d="M8.86,21.63c-0.26-1.08-0.41-2.21-0.41-3.36c0-8.19,6.45-14.51,14.4-14.51c2.36,0,4.83,0.53,6.69,1.69
	l4.39-0.15c-2.9-2.53-6.87-4.04-11.08-4.04c-9.4,0-17.02,7.62-17.02,17.02c0,1.59,0.22,3.19,0.65,4.53L8.86,21.63z"/>
<path class="st0" d="M36.23,14.39c-3.25,2.62-11.8,6.19-11.8,6.19l-7.74-0.89c0,0,2.05-3.61,3.6-5.74c1.56-2.14,2.31-2.72,4.81-3.79
	c2.49-1.07,5.29-1.33,8.95-1.2c3.69,0.13,6.19-0.04,6.31,1.29C40.47,11.38,39.48,11.77,36.23,14.39 M22.87,24.6H10.75
	c0.86-0.45,3.49-2.43,3.49-2.43l8.92,0.9L22.87,24.6z M38.77,6.65c-2.53-0.38-6.72-0.74-10.01-0.16c-3.29,0.58-6.97,1.31-9.43,4.16
	s-3.55,6.46-5.92,8.6c-2.37,2.14-2.66,2.49-6.08,4.41C3.9,25.59,0,27.16,0,27.16h25.04l0.19-0.77l8.16,0.77l0.38-3.2l-7.68-0.7
	l0.03-0.58c0,0,7.8-3.71,9.15-4.57c1.34-0.86,7.81-4.93,7.77-7.2C43.02,8.64,41.29,7.04,38.77,6.65"/>
<polygon class="st0" points="187.71,4.09 187.71,32.27 197.19,32.27 197.19,19.52 205.19,32.27 214.84,32.27 214.84,4.09 
	205.19,4.09 205.19,16.52 197.57,4.09 "/>
<polygon class="st0" points="161.34,4.09 150.48,4.09 142.86,17.87 151.06,32.27 162.65,32.27 153.58,17.87 "/>
<rect x="132.59" y="4.09" class="st0" width="10.13" height="28.39"/>
<polygon class="st0" points="116.94,4.09 111.97,18.83 107.22,4.09 94.91,4.09 94.91,32.27 104.56,32.27 104.56,18.74 112.11,41.27 
	119.39,18.74 119.39,32.27 129.17,32.27 129.17,4.09 "/>
<polygon class="st0" points="163.41,4.09 163.41,32.27 184.78,32.27 184.78,25.52 173.42,25.52 173.42,21.59 184.78,21.59 
	184.78,14.7 173.42,14.7 173.42,10.76 184.78,10.76 184.78,4.09 "/>
<polygon class="st0" points="70.59,4.09 70.59,32.27 91.96,32.27 91.96,25.52 80.6,25.52 80.6,21.59 91.96,21.59 91.96,14.7 
	80.6,14.7 80.6,10.76 91.96,10.76 91.96,4.09 "/>
<polygon class="st0" points="48.79,4.07 48.79,32.26 67.84,32.26 67.84,25.5 58.05,25.5 58.05,4.07 "/>
</svg>
