<svg id="ihof_logo" xmlns="http://www.w3.org/2000/svg" xmlns:xlink="http://www.w3.org/1999/xlink" width="724.252" height="119.735" viewBox="0 0 724.252 119.735">
  <defs>
    <clipPath id="clip-path">
      <rect id="Rechteck_7" data-name="Rechteck 7" width="724.252" height="119.735" fill="none"/>
    </clipPath>
    <clipPath id="clip-path-2">
      <rect id="Rechteck_3" data-name="Rechteck 3" width="724.252" height="119.731" fill="none"/>
    </clipPath>
    <clipPath id="clip-path-4">
      <rect id="Rechteck_4" data-name="Rechteck 4" width="296.868" height="49.64" fill="none"/>
    </clipPath>
  </defs>
  <g id="Gruppe_8" data-name="Gruppe 8" clip-path="url(#clip-path)">
    <g id="Gruppe_1" data-name="Gruppe 1" clip-path="url(#clip-path-2)">
      <path id="Pfad_1" data-name="Pfad 1" d="M3743.736,4183.994a151.5,151.5,0,0,1-38.739-7.912v46.644h38.739Zm-81.917-49.939a119.558,119.558,0,0,0,81.753,38.9v-38.9Zm93.245,100.069H3643.926V4122.68h111.139Zm-99.649-11.4H3694V4171.8a137.17,137.17,0,0,1-38.579-28.019v78.946Z" transform="translate(-3050.316 -4114.466)" fill="#0e5049"/>
    </g>
    <g id="Gruppe_7" data-name="Gruppe 7" clip-path="url(#clip-path-2)">
      <g id="Gruppe_6" data-name="Gruppe 6" transform="translate(312.683 73.923)" opacity="0.56">
        <g id="Gruppe_3" data-name="Gruppe 3" clip-path="url(#clip-path-4)">
          <g id="Gruppe_2" data-name="Gruppe 2" transform="translate(34.419 26.823)">
            <path id="Pfad_2" data-name="Pfad 2" d="M2990.43,4380.007l3.606-.352a4.409,4.409,0,0,0,1.322,2.664,4.009,4.009,0,0,0,2.687.848,4.125,4.125,0,0,0,2.7-.756,2.239,2.239,0,0,0,.908-1.769,1.645,1.645,0,0,0-.384-1.1,3,3,0,0,0-1.332-.794c-.434-.149-1.423-.419-2.969-.8a10.118,10.118,0,0,1-4.182-1.812,4.769,4.769,0,0,1-1.691-3.689,4.707,4.707,0,0,1,.795-2.615,4.959,4.959,0,0,1,2.293-1.854,9.173,9.173,0,0,1,3.612-.64,7.731,7.731,0,0,1,5.205,1.516,5.328,5.328,0,0,1,1.836,4.033l-3.709.166a3.143,3.143,0,0,0-1.019-2.033,3.76,3.76,0,0,0-2.351-.617,4.254,4.254,0,0,0-2.53.661,1.334,1.334,0,0,0-.587,1.138,1.413,1.413,0,0,0,.55,1.113,9.7,9.7,0,0,0,3.408,1.221,17.99,17.99,0,0,1,4,1.318,5.151,5.151,0,0,1,2.03,1.864,5.743,5.743,0,0,1-.143,5.865,5.243,5.243,0,0,1-2.481,2.043,10.449,10.449,0,0,1-3.995.67,7.969,7.969,0,0,1-5.348-1.605A6.98,6.98,0,0,1,2990.43,4380.007Z" transform="translate(-2990.43 -4367.312)"/>
            <path id="Pfad_3" data-name="Pfad 3" d="M3048.916,4379.259l3.594,1.137a8.016,8.016,0,0,1-2.75,4.452,8.666,8.666,0,0,1-10.89-1.037,9.515,9.515,0,0,1-2.354-6.815,10,10,0,0,1,2.365-7.1,8.134,8.134,0,0,1,6.225-2.532,7.655,7.655,0,0,1,5.473,1.987,7.235,7.235,0,0,1,1.881,3.375l-3.671.876a3.794,3.794,0,0,0-3.871-3.076,4.188,4.188,0,0,0-3.312,1.462,7.164,7.164,0,0,0-1.273,4.738,7.644,7.644,0,0,0,1.254,4.944,4.064,4.064,0,0,0,3.257,1.479,3.717,3.717,0,0,0,2.542-.938A5.471,5.471,0,0,0,3048.916,4379.259Z" transform="translate(-3019.119 -4367.338)"/>
            <path id="Pfad_4" data-name="Pfad 4" d="M3087.429,4386.522V4368.2h3.7v7.208h7.265V4368.2h3.709v18.319H3098.4v-8.01h-7.265v8.01Z" transform="translate(-3050.84 -4367.866)"/>
            <path id="Pfad_5" data-name="Pfad 5" d="M3136.506,4386.522V4368.2h13.613v3.1h-9.906v4.065h9.216v3.087h-9.216v4.983h10.257v3.087Z" transform="translate(-3081.404 -4367.866)"/>
            <path id="Pfad_6" data-name="Pfad 6" d="M3181.9,4386.5V4368.18h7.8a13.368,13.368,0,0,1,4.275.493,4.21,4.21,0,0,1,2.134,1.754,5.248,5.248,0,0,1,.8,2.888,4.894,4.894,0,0,1-1.211,3.407,5.846,5.846,0,0,1-3.636,1.689,8.663,8.663,0,0,1,1.986,1.538,20.548,20.548,0,0,1,2.111,2.976l2.243,3.574h-4.437l-2.678-3.986a25.569,25.569,0,0,0-1.956-2.694,2.864,2.864,0,0,0-1.112-.763,6.149,6.149,0,0,0-1.865-.206h-.753v7.649Zm3.706-10.571h2.742a13.987,13.987,0,0,0,3.332-.228,2,2,0,0,0,1.042-.775,2.386,2.386,0,0,0,.373-1.373,2.19,2.19,0,0,0-.493-1.492,2.285,2.285,0,0,0-1.4-.72q-.453-.062-2.705-.064H3185.6Z" transform="translate(-3109.672 -4367.844)"/>
            <path id="Pfad_7" data-name="Pfad 7" d="M3230.972,4386.522V4368.2h13.616v3.1h-9.907v4.065h9.217v3.087h-9.217v4.983h10.256v3.087Z" transform="translate(-3140.236 -4367.866)"/>
            <path id="Pfad_8" data-name="Pfad 8" d="M3276.422,4386.522V4368.2h3.608l7.516,12.235V4368.2h3.444v18.319h-3.721l-7.4-11.947v11.947Z" transform="translate(-3168.542 -4367.866)"/>
            <path id="Pfad_9" data-name="Pfad 9" d="M3325.479,4368.188h7.34a21.389,21.389,0,0,1,3.25.179,4.834,4.834,0,0,1,1.914.756,4.726,4.726,0,0,1,1.411,1.534,4.124,4.124,0,0,1,.564,2.14,4.333,4.333,0,0,1-2.582,3.975,4.832,4.832,0,0,1,2.582,1.663,4.41,4.41,0,0,1,.9,2.763,5.417,5.417,0,0,1-.583,2.427,4.89,4.89,0,0,1-1.593,1.886,5.246,5.246,0,0,1-2.486.872c-.619.064-2.107.108-4.47.124h-6.249Zm3.706,3.05v4.236h2.428c1.444,0,2.342-.024,2.694-.065a2.451,2.451,0,0,0,1.5-.655,1.921,1.921,0,0,0,.544-1.428,1.991,1.991,0,0,0-.47-1.381,2.112,2.112,0,0,0-1.4-.644c-.365-.046-1.425-.063-3.168-.063Zm0,7.285v4.9h3.433a16.663,16.663,0,0,0,2.54-.112,2.3,2.3,0,0,0,1.347-.731,2.25,2.25,0,0,0,.52-1.555,2.394,2.394,0,0,0-.4-1.4,2.268,2.268,0,0,0-1.157-.837,12.648,12.648,0,0,0-3.291-.262Z" transform="translate(-3199.094 -4367.855)"/>
            <path id="Pfad_10" data-name="Pfad 10" d="M3372.525,4376.939a11.617,11.617,0,0,1,.839-4.7,8.62,8.62,0,0,1,1.708-2.511,7.106,7.106,0,0,1,2.374-1.649,10.115,10.115,0,0,1,3.959-.728,8.625,8.625,0,0,1,6.492,2.513,11.2,11.2,0,0,1,.019,13.926,9.673,9.673,0,0,1-12.975.013A9.443,9.443,0,0,1,3372.525,4376.939Zm3.821-.124a6.829,6.829,0,0,0,1.439,4.712,4.956,4.956,0,0,0,7.3.016,7,7,0,0,0,1.421-4.782,6.878,6.878,0,0,0-1.384-4.7,5.128,5.128,0,0,0-7.37.018A6.889,6.889,0,0,0,3376.346,4376.816Z" transform="translate(-3228.384 -4367.331)"/>
            <path id="Pfad_11" data-name="Pfad 11" d="M3424.949,4380.008l3.608-.352a4.394,4.394,0,0,0,1.321,2.662,4.011,4.011,0,0,0,2.688.851,4.151,4.151,0,0,0,2.7-.756,2.254,2.254,0,0,0,.906-1.771,1.661,1.661,0,0,0-.38-1.1,3.075,3.075,0,0,0-1.336-.795c-.433-.148-1.421-.419-2.966-.8a10.1,10.1,0,0,1-4.187-1.811,4.767,4.767,0,0,1-1.689-3.689,4.716,4.716,0,0,1,.794-2.616,4.991,4.991,0,0,1,2.294-1.854,9.149,9.149,0,0,1,3.613-.64,7.743,7.743,0,0,1,5.2,1.515,5.331,5.331,0,0,1,1.836,4.033l-3.708.164a3.145,3.145,0,0,0-1.019-2.031,3.761,3.761,0,0,0-2.351-.617,4.242,4.242,0,0,0-2.531.663,1.332,1.332,0,0,0-.589,1.136,1.405,1.405,0,0,0,.552,1.112,9.7,9.7,0,0,0,3.405,1.224,18.229,18.229,0,0,1,4.006,1.317,5.2,5.2,0,0,1,2.024,1.862,5.743,5.743,0,0,1-.142,5.866,5.246,5.246,0,0,1-2.481,2.044,10.449,10.449,0,0,1-4,.671,7.962,7.962,0,0,1-5.347-1.605A6.977,6.977,0,0,1,3424.949,4380.008Z" transform="translate(-3261.042 -4367.313)"/>
            <path id="Pfad_12" data-name="Pfad 12" d="M3474.765,4386.522V4371.3h-5.448v-3.1h14.589v3.1h-5.432v15.222Z" transform="translate(-3288.674 -4367.866)"/>
            <path id="Pfad_13" data-name="Pfad 13" d="M3514.331,4386.522V4368.2h13.616v3.1h-9.906v4.065h9.217v3.087h-9.217v4.983H3528.3v3.087Z" transform="translate(-3316.708 -4367.866)"/>
          </g>
        </g>
        <g id="Gruppe_5" data-name="Gruppe 5" clip-path="url(#clip-path-4)">
          <g id="Gruppe_4" data-name="Gruppe 4" transform="translate(249.527 27.309)">
            <path id="Pfad_14" data-name="Pfad 14" d="M3560.683,4386.768V4368.6h3.709v15.083h9.217v3.086Z" transform="translate(-3560.683 -4368.598)"/>
          </g>
        </g>
      </g>
    </g>
  </g>
  <g id="Gruppe_9" data-name="Gruppe 9" clip-path="url(#clip-path)">
    <rect id="Rechteck_8" data-name="Rechteck 8" width="326.255" height="10.517" transform="translate(0 109.141)" fill="#106047"/>
  </g>
  <g id="Gruppe_13" data-name="Gruppe 13" clip-path="url(#clip-path)">
    <g id="Gruppe_11" data-name="Gruppe 11" clip-path="url(#clip-path-2)">
      <g id="Gruppe_10" data-name="Gruppe 10" transform="translate(0.619 7.066)">
        <path id="Pfad_15" data-name="Pfad 15" d="M2071.9,4122.862h15.222v68.672H2071.9Z" transform="translate(-2071.899 -4121.645)"/>
        <path id="Pfad_16" data-name="Pfad 16" d="M2141.416,4122.862H2155.6l18.508,37.994v-37.994h14.317v68.672H2174.1l-18.406-37.706v37.706h-14.283Z" transform="translate(-2115.192 -4121.645)"/>
        <path id="Pfad_17" data-name="Pfad 17" d="M2293.307,4122.828h22.566a20.334,20.334,0,0,1,10.777,2.531,19.721,19.721,0,0,1,6.79,7.261,35.923,35.923,0,0,1,3.89,11.007,70.447,70.447,0,0,1,1.207,13.3,63.216,63.216,0,0,1-1.792,17.075,30.507,30.507,0,0,1-4.979,10.166,15.928,15.928,0,0,1-6.839,5.454,26.036,26.036,0,0,1-9.052,1.875h-22.565Zm15.189,15.554v37.52h3.721a11.772,11.772,0,0,0,6.772-1.475,9.73,9.73,0,0,0,3.151-5.153,44.279,44.279,0,0,0,1.139-11.921,30.46,30.46,0,0,0-2.546-14.944,9.228,9.228,0,0,0-8.45-4.026Z" transform="translate(-2209.788 -4121.611)"/>
        <path id="Pfad_18" data-name="Pfad 18" d="M2466.408,4122.862h15.155v40.916a47.062,47.062,0,0,1-1.358,11.49,27.508,27.508,0,0,1-4.259,9.455,17.848,17.848,0,0,1-6.083,5.689,22.853,22.853,0,0,1-10.629,2.293,48.151,48.151,0,0,1-7.829-.7,16.366,16.366,0,0,1-7.092-2.784,20.474,20.474,0,0,1-5.212-5.923,24.987,24.987,0,0,1-3.237-7.908,56.072,56.072,0,0,1-1.407-11.608v-40.916h15.153v41.889a15.035,15.035,0,0,0,2.23,8.776,7.637,7.637,0,0,0,12.339.045,14.986,14.986,0,0,0,2.229-8.821Z" transform="translate(-2297.695 -4121.645)"/>
        <path id="Pfad_19" data-name="Pfad 19" d="M2578.976,4166.815l14.449-1.265a19.479,19.479,0,0,0,1.911,7.5,7.34,7.34,0,0,0,6.706,4.17,6.131,6.131,0,0,0,5.011-2.132,7.728,7.728,0,0,0,.083-9.72,16.65,16.65,0,0,0-7.778-3.981,29.317,29.317,0,0,1-14.247-8.337,20.127,20.127,0,0,1-4.293-13.256,23.391,23.391,0,0,1,2.2-10,16.831,16.831,0,0,1,6.6-7.4,23.127,23.127,0,0,1,12.086-2.694,19.594,19.594,0,0,1,14.368,4.9,24.328,24.328,0,0,1,5.884,15.574l-14.317,1.172a12.642,12.642,0,0,0-2.4-6.744,6.318,6.318,0,0,0-5.046-2.108,4.956,4.956,0,0,0-3.99,1.569,5.68,5.68,0,0,0-1.342,3.818,4.455,4.455,0,0,0,1.106,2.95,10.58,10.58,0,0,0,5.1,2.532,51.565,51.565,0,0,1,14.265,6.065,18.017,18.017,0,0,1,6.271,7.61,25.384,25.384,0,0,1,1.96,10.167,28.287,28.287,0,0,1-2.615,12.178,19.09,19.09,0,0,1-7.308,8.455,22.3,22.3,0,0,1-11.837,2.881q-12.538,0-17.367-6.746a32.25,32.25,0,0,1-5.464-17.144Z" transform="translate(-2387.699 -4119.643)"/>
        <path id="Pfad_20" data-name="Pfad 20" d="M2708.307,4122.862h46.167v16.957h-15.489v51.715H2723.8v-51.712h-15.49Z" transform="translate(-2468.244 -4121.645)"/>
        <path id="Pfad_21" data-name="Pfad 21" d="M2849.45,4191.482v-68.671h25.314a26.979,26.979,0,0,1,10.763,1.688,12.708,12.708,0,0,1,6,6.252,24.753,24.753,0,0,1,2.28,11.125,25.354,25.354,0,0,1-1.746,9.862,17.493,17.493,0,0,1-4.8,6.721,15.6,15.6,0,0,1-5.333,2.717,13.773,13.773,0,0,1,3.953,2.532,20.133,20.133,0,0,1,2.43,3.61,29.4,29.4,0,0,1,2.127,4.267l7.354,19.9h-17.161l-8.119-20.984a16.726,16.726,0,0,0-2.749-5.295,5.219,5.219,0,0,0-3.722-1.593h-1.341v27.872Zm15.256-40.847h6.4a16.851,16.851,0,0,0,4.022-.937,4.115,4.115,0,0,0,2.465-2.153,8.121,8.121,0,0,0,.956-3.983,7.684,7.684,0,0,0-1.511-5.105,7.211,7.211,0,0,0-5.667-1.78h-6.67Z" transform="translate(-2556.147 -4121.595)"/>
        <path id="Pfad_22" data-name="Pfad 22" d="M2992.111,4122.862h15.223v68.672h-15.223Z" transform="translate(-2644.995 -4121.645)"/>
        <path id="Pfad_23" data-name="Pfad 23" d="M3061.265,4122.862h40.7v14.662h-25.482v10.914h23.638v14.006h-23.638v13.538h26.221v15.552h-41.44Z" transform="translate(-2688.063 -4121.645)"/>
        <path id="Pfad_24" data-name="Pfad 24" d="M3193,4122.862h15.186v24.031h16.6v-24.031h15.253v68.672h-15.253v-27.778h-16.6v27.778h-15.187Z" transform="translate(-2770.101 -4121.645)"/>
        <path id="Pfad_25" data-name="Pfad 25" d="M3339.261,4155.278a44.385,44.385,0,0,1,6.706-26.185,21.672,21.672,0,0,1,18.675-9.369,21.914,21.914,0,0,1,18.907,9.2,43.482,43.482,0,0,1,6.639,25.787,56.866,56.866,0,0,1-2.9,19.744,26.7,26.7,0,0,1-8.381,11.99,21.514,21.514,0,0,1-13.665,4.288,23.972,23.972,0,0,1-13.761-3.7,25.761,25.761,0,0,1-8.836-11.712A51.7,51.7,0,0,1,3339.261,4155.278Zm15.187.094a30.1,30.1,0,0,0,2.765,14.942,8.59,8.59,0,0,0,15.1.095,33.512,33.512,0,0,0,2.683-15.974,27.557,27.557,0,0,0-2.8-14.169,8.585,8.585,0,0,0-7.594-4.473,8.374,8.374,0,0,0-7.377,4.542,30.223,30.223,0,0,0-2.786,15.038Z" transform="translate(-2861.147 -4119.679)"/>
        <path id="Pfad_26" data-name="Pfad 26" d="M3496.26,4122.862h37.548v14.755h-22.295v11.993h19.045v13.865h-19.045v28.059H3496.26Z" transform="translate(-2958.971 -4121.645)"/>
      </g>
    </g>
    <g id="Gruppe_12" data-name="Gruppe 12" clip-path="url(#clip-path-2)">
      <path id="Pfad_27" data-name="Pfad 27" d="M3954.912,4108.383h.855c.985,0,1.788-.328,1.788-1.132,0-.705-.52-1.182-1.649-1.182a4.588,4.588,0,0,0-.994.092Zm-.042,4.349h-1.791v-7.75a21.389,21.389,0,0,1,2.972-.239,4.1,4.1,0,0,1,2.638.618,1.938,1.938,0,0,1,.8,1.651,2,2,0,0,1-1.6,1.848v.095c.753.233,1.135.846,1.369,1.889a6.757,6.757,0,0,0,.568,1.89h-1.887a6.112,6.112,0,0,1-.612-1.888c-.141-.8-.614-1.179-1.6-1.179h-.848Zm-4.76-4.013a6.02,6.02,0,0,0,6.033,6.19,5.928,5.928,0,0,0,5.892-6.145,5.968,5.968,0,1,0-11.925-.045m13.9,0a7.942,7.942,0,1,1-7.871-7.756,7.8,7.8,0,0,1,7.871,7.756" transform="translate(-3239.766 -4100.961)"/>
    </g>
  </g>
</svg>
